# xmcd
# 
# Track frame offsets:
#     150
#     21250
#     38710
#     63480
#     81550
#     94672
#     125755
#     138550
#     174392
#     187445
#     218887
#     236845
#     266517
#     280085
#     303660
# 
# Disc length: 4329
# 
# Revision: 7
# Processed by: cddbd v1.5.2PL0 Copyright (c) Steve Scherf et al.
# Submitted via: BonkEnc v1.0
# 
DISCID=e910e70f
DTITLE=Eric Clapton - Blues - Studio Disc
DYEAR=1999
DGENRE=Blues
TTITLE0=Before You Accuse Me (Take a Look at Yourself) [version 1]
TTITLE1=Mean Old World
TTITLE2=Ain't That Loving You
TTITLE3=The Sky Is Crying
TTITLE4=Cryin'
TTITLE5=Have You Ever Loved a Woman
TTITLE6=Alberta
TTITLE7=Early in the Morning
TTITLE8=Give Me Strength
TTITLE9=Meet Me (Down at the Bottom)
TTITLE10=County Jail Blues
TTITLE11=Floating Bridges
TTITLE12=Blow Wind Blow
TTITLE13=To Make Somebody Happy
TTITLE14=Before You Accuse Me (Take a Look at Yourself) [version 2]
EXTD=
EXTT0=
EXTT1=
EXTT2=
EXTT3=
EXTT4=
EXTT5=
EXTT6=
EXTT7=
EXTT8=
EXTT9=
EXTT10=
EXTT11=
EXTT12=
EXTT13=
EXTT14=
PLAYORDER=
